<svg 
 xmlns="http://www.w3.org/2000/svg"
 xmlns:xlink="http://www.w3.org/1999/xlink"
 width="651px" height="214px">
<path fill-rule="evenodd"  fill="rgb(255, 255, 255)"
 d="M0.301,167.452 L58.401,102.481 L79.370,139.582 L114.623,86.436 L155.463,49.067 L177.571,84.239 L180.985,88.817 L219.890,46.185 L236.068,74.470 L263.919,32.927 L294.535,0.869 L322.627,40.226 L360.200,46.767 L374.011,17.814 L428.853,44.810 L451.302,7.266 L483.381,40.314 L539.600,98.226 L564.282,114.949 L572.884,133.772 L613.057,120.375 L642.346,155.067 L650.503,170.713 C650.503,170.713 584.392,215.108 581.439,214.002 C578.486,212.895 0.301,167.452 0.301,167.452 Z"/>
</svg>